<mxfile host="app.diagrams.net" agent="Mozilla/5.0 (Windows NT 10.0; Win64; x64) AppleWebKit/537.36 (KHTML, like Gecko) Chrome/130.0.0.0 Safari/537.36 Edg/130.0.0.0" version="24.8.4">
  <diagram id="C5RBs43oDa-KdzZeNtuy" name="Page-1">
    <mxGraphModel dx="971" dy="622" grid="1" gridSize="10" guides="1" tooltips="1" connect="1" arrows="1" fold="1" page="1" pageScale="1" pageWidth="827" pageHeight="1169" math="0" shadow="0">
      <root>
        <mxCell id="WIyWlLk6GJQsqaUBKTNV-0" />
        <mxCell id="WIyWlLk6GJQsqaUBKTNV-1" parent="WIyWlLk6GJQsqaUBKTNV-0" />
        <mxCell id="WIyWlLk6GJQsqaUBKTNV-3" value="Pembeli" style="rounded=1;whiteSpace=wrap;html=1;fontSize=12;glass=0;strokeWidth=1;shadow=0;" parent="WIyWlLk6GJQsqaUBKTNV-1" vertex="1">
          <mxGeometry x="80" y="48" width="120" height="40" as="geometry" />
        </mxCell>
        <mxCell id="WIyWlLk6GJQsqaUBKTNV-7" value="Penjual" style="rounded=1;whiteSpace=wrap;html=1;fontSize=12;glass=0;strokeWidth=1;shadow=0;" parent="WIyWlLk6GJQsqaUBKTNV-1" vertex="1">
          <mxGeometry x="560" y="48" width="120" height="40" as="geometry" />
        </mxCell>
        <mxCell id="qBWDs-hfIf_dVhMQSDq4-0" value="E-Commerce&lt;br&gt;Manajem&lt;span style=&quot;background-color: initial;&quot;&gt;en System&lt;/span&gt;" style="ellipse;whiteSpace=wrap;html=1;" vertex="1" parent="WIyWlLk6GJQsqaUBKTNV-1">
          <mxGeometry x="320" y="30" width="120" height="80" as="geometry" />
        </mxCell>
        <mxCell id="qBWDs-hfIf_dVhMQSDq4-1" value="E-Commerce&lt;br&gt;Database" style="rounded=0;whiteSpace=wrap;html=1;" vertex="1" parent="WIyWlLk6GJQsqaUBKTNV-1">
          <mxGeometry x="320" y="220" width="120" height="60" as="geometry" />
        </mxCell>
        <mxCell id="qBWDs-hfIf_dVhMQSDq4-34" value="" style="endArrow=classic;html=1;rounded=0;fontSize=12;startSize=8;endSize=8;curved=1;exitX=0.5;exitY=1;exitDx=0;exitDy=0;entryX=0.5;entryY=0;entryDx=0;entryDy=0;" edge="1" parent="WIyWlLk6GJQsqaUBKTNV-1">
          <mxGeometry width="50" height="50" relative="1" as="geometry">
            <mxPoint x="360" y="110" as="sourcePoint" />
            <mxPoint x="360" y="220" as="targetPoint" />
            <Array as="points" />
          </mxGeometry>
        </mxCell>
        <mxCell id="qBWDs-hfIf_dVhMQSDq4-36" value="" style="endArrow=classic;html=1;rounded=0;fontSize=12;startSize=8;endSize=8;curved=1;exitX=0.247;exitY=-0.033;exitDx=0;exitDy=0;exitPerimeter=0;" edge="1" parent="WIyWlLk6GJQsqaUBKTNV-1">
          <mxGeometry width="50" height="50" relative="1" as="geometry">
            <mxPoint x="340.64" y="218.01999999999998" as="sourcePoint" />
            <mxPoint x="341" y="108" as="targetPoint" />
            <Array as="points">
              <mxPoint x="341" y="175" />
            </Array>
          </mxGeometry>
        </mxCell>
        <mxCell id="qBWDs-hfIf_dVhMQSDq4-37" value="" style="endArrow=classic;html=1;rounded=0;fontSize=12;startSize=8;endSize=8;curved=1;exitX=0.75;exitY=0;exitDx=0;exitDy=0;" edge="1" parent="WIyWlLk6GJQsqaUBKTNV-1">
          <mxGeometry width="50" height="50" relative="1" as="geometry">
            <mxPoint x="400" y="220" as="sourcePoint" />
            <mxPoint x="400" y="108" as="targetPoint" />
            <Array as="points" />
          </mxGeometry>
        </mxCell>
        <mxCell id="qBWDs-hfIf_dVhMQSDq4-38" value="" style="endArrow=classic;html=1;rounded=0;fontSize=12;startSize=8;endSize=8;curved=1;exitX=0.5;exitY=1;exitDx=0;exitDy=0;entryX=0.5;entryY=0;entryDx=0;entryDy=0;" edge="1" parent="WIyWlLk6GJQsqaUBKTNV-1">
          <mxGeometry width="50" height="50" relative="1" as="geometry">
            <mxPoint x="419" y="110" as="sourcePoint" />
            <mxPoint x="419" y="220" as="targetPoint" />
            <Array as="points" />
          </mxGeometry>
        </mxCell>
        <mxCell id="qBWDs-hfIf_dVhMQSDq4-39" value="&lt;font style=&quot;font-size: 12px;&quot;&gt;pesanan&lt;/font&gt;" style="text;html=1;align=center;verticalAlign=middle;whiteSpace=wrap;rounded=0;fontSize=16;rotation=-90;" vertex="1" parent="WIyWlLk6GJQsqaUBKTNV-1">
          <mxGeometry x="337" y="168" width="60" height="30" as="geometry" />
        </mxCell>
        <mxCell id="qBWDs-hfIf_dVhMQSDq4-40" value="receipt" style="text;html=1;align=center;verticalAlign=middle;whiteSpace=wrap;rounded=0;fontSize=12;rotation=-91;" vertex="1" parent="WIyWlLk6GJQsqaUBKTNV-1">
          <mxGeometry x="300" y="128" width="60" height="30" as="geometry" />
        </mxCell>
        <mxCell id="qBWDs-hfIf_dVhMQSDq4-41" value="&lt;font style=&quot;font-size: 12px;&quot;&gt;laporan&lt;/font&gt;" style="text;html=1;align=center;verticalAlign=middle;whiteSpace=wrap;rounded=0;fontSize=16;rotation=-90;" vertex="1" parent="WIyWlLk6GJQsqaUBKTNV-1">
          <mxGeometry x="359" y="126" width="60" height="30" as="geometry" />
        </mxCell>
        <mxCell id="qBWDs-hfIf_dVhMQSDq4-42" value="produk" style="text;html=1;align=center;verticalAlign=middle;whiteSpace=wrap;rounded=0;fontSize=12;rotation=-90;" vertex="1" parent="WIyWlLk6GJQsqaUBKTNV-1">
          <mxGeometry x="399" y="169" width="60" height="29" as="geometry" />
        </mxCell>
        <mxCell id="qBWDs-hfIf_dVhMQSDq4-43" value="" style="group" vertex="1" connectable="0" parent="WIyWlLk6GJQsqaUBKTNV-1">
          <mxGeometry x="440" y="36.5" width="120" height="66.5" as="geometry" />
        </mxCell>
        <mxCell id="qBWDs-hfIf_dVhMQSDq4-24" value="&lt;font style=&quot;font-size: 12px;&quot;&gt;laporan&lt;/font&gt;" style="text;html=1;align=center;verticalAlign=middle;whiteSpace=wrap;rounded=0;fontSize=16;" vertex="1" parent="qBWDs-hfIf_dVhMQSDq4-43">
          <mxGeometry x="70.01427596052386" width="44.68996337905778" height="30" as="geometry" />
        </mxCell>
        <mxCell id="qBWDs-hfIf_dVhMQSDq4-25" value="" style="endArrow=classic;html=1;rounded=0;fontSize=12;startSize=8;endSize=8;curved=1;exitX=0;exitY=0.625;exitDx=0;exitDy=0;exitPerimeter=0;" edge="1" parent="qBWDs-hfIf_dVhMQSDq4-43">
          <mxGeometry width="50" height="50" relative="1" as="geometry">
            <mxPoint x="119.17323567748741" y="41.44" as="sourcePoint" />
            <mxPoint y="41" as="targetPoint" />
            <Array as="points" />
          </mxGeometry>
        </mxCell>
        <mxCell id="qBWDs-hfIf_dVhMQSDq4-26" value="produk" style="text;html=1;align=center;verticalAlign=middle;whiteSpace=wrap;rounded=0;fontSize=12;" vertex="1" parent="qBWDs-hfIf_dVhMQSDq4-43">
          <mxGeometry x="2.9793308919371855" y="36.5" width="44.68996337905778" height="30" as="geometry" />
        </mxCell>
        <mxCell id="qBWDs-hfIf_dVhMQSDq4-27" value="" style="endArrow=classic;html=1;rounded=0;fontSize=12;startSize=8;endSize=8;curved=1;" edge="1" parent="qBWDs-hfIf_dVhMQSDq4-43">
          <mxGeometry width="50" height="50" relative="1" as="geometry">
            <mxPoint y="27" as="sourcePoint" />
            <mxPoint x="120" y="27" as="targetPoint" />
            <Array as="points">
              <mxPoint x="90.20669108062815" y="27" />
            </Array>
          </mxGeometry>
        </mxCell>
        <mxCell id="qBWDs-hfIf_dVhMQSDq4-44" value="" style="group" vertex="1" connectable="0" parent="WIyWlLk6GJQsqaUBKTNV-1">
          <mxGeometry x="200" y="33" width="121.11000000000001" height="70" as="geometry" />
        </mxCell>
        <mxCell id="qBWDs-hfIf_dVhMQSDq4-10" value="&lt;font style=&quot;font-size: 12px;&quot;&gt;pesanan&lt;/font&gt;" style="text;html=1;align=center;verticalAlign=middle;whiteSpace=wrap;rounded=0;fontSize=16;" vertex="1" parent="qBWDs-hfIf_dVhMQSDq4-44">
          <mxGeometry x="54" width="60" height="30" as="geometry" />
        </mxCell>
        <mxCell id="qBWDs-hfIf_dVhMQSDq4-21" value="" style="endArrow=classic;html=1;rounded=0;fontSize=12;startSize=8;endSize=8;curved=1;exitX=0;exitY=0.625;exitDx=0;exitDy=0;exitPerimeter=0;entryX=0;entryY=0;entryDx=0;entryDy=0;" edge="1" parent="qBWDs-hfIf_dVhMQSDq4-44" target="qBWDs-hfIf_dVhMQSDq4-22">
          <mxGeometry width="50" height="50" relative="1" as="geometry">
            <mxPoint x="120" y="41.44" as="sourcePoint" />
            <mxPoint x="-40" y="41" as="targetPoint" />
            <Array as="points" />
          </mxGeometry>
        </mxCell>
        <mxCell id="qBWDs-hfIf_dVhMQSDq4-22" value="receipt" style="text;html=1;align=center;verticalAlign=middle;whiteSpace=wrap;rounded=0;fontSize=12;" vertex="1" parent="qBWDs-hfIf_dVhMQSDq4-44">
          <mxGeometry y="40" width="60" height="30" as="geometry" />
        </mxCell>
        <mxCell id="qBWDs-hfIf_dVhMQSDq4-23" value="" style="endArrow=classic;html=1;rounded=0;fontSize=12;startSize=8;endSize=8;curved=1;" edge="1" parent="qBWDs-hfIf_dVhMQSDq4-44">
          <mxGeometry width="50" height="50" relative="1" as="geometry">
            <mxPoint y="27" as="sourcePoint" />
            <mxPoint x="121.11000000000001" y="27" as="targetPoint" />
            <Array as="points">
              <mxPoint x="81.11000000000001" y="27" />
            </Array>
          </mxGeometry>
        </mxCell>
      </root>
    </mxGraphModel>
  </diagram>
</mxfile>
